<svg width="36" height="28" viewBox="0 0 36 28" fill="none" xmlns="http://www.w3.org/2000/svg">
<path d="M36.0002 14C36.0002 14.3481 35.8422 14.6819 35.5609 14.9281C35.2796 15.1742 34.898 15.3125 34.5002 15.3125H5.12083L16.0615 24.8839C16.2008 25.0058 16.3114 25.1506 16.3868 25.3099C16.4622 25.4693 16.501 25.64 16.501 25.8125C16.501 25.985 16.4622 26.1557 16.3868 26.3151C16.3114 26.4744 16.2008 26.6191 16.0615 26.7411C15.9221 26.863 15.7566 26.9598 15.5745 27.0258C15.3925 27.0918 15.1973 27.1257 15.0002 27.1257C14.8031 27.1257 14.6079 27.0918 14.4259 27.0258C14.2438 26.9598 14.0783 26.863 13.939 26.7411L0.438953 14.9286C0.299489 14.8067 0.18885 14.6619 0.113364 14.5026C0.0378774 14.3433 -0.000976562 14.1725 -0.000976562 14C-0.000976562 13.8275 0.0378774 13.6567 0.113364 13.4974C0.18885 13.3381 0.299489 13.1933 0.438953 13.0714L13.939 1.2589C14.2204 1.01263 14.6022 0.874268 15.0002 0.874268C15.3982 0.874268 15.78 1.01263 16.0615 1.2589C16.3429 1.50518 16.501 1.83921 16.501 2.1875C16.501 2.53579 16.3429 2.86981 16.0615 3.11609L5.12083 12.6875H34.5002C34.898 12.6875 35.2796 12.8258 35.5609 13.0719C35.8422 13.3181 36.0002 13.6519 36.0002 14Z" fill="black"/>
</svg>
