<svg width="45" height="48" viewBox="0 0 45 48" fill="none" xmlns="http://www.w3.org/2000/svg">
<g filter="url(#filter0_d_52_139)">
<path d="M39.375 23.5C39.375 23.8895 39.2268 24.2631 38.9631 24.5386C38.6994 24.814 38.3417 24.9688 37.9688 24.9688H7.03125C6.65829 24.9688 6.3006 24.814 6.03688 24.5386C5.77316 24.2631 5.625 23.8895 5.625 23.5C5.625 23.1105 5.77316 22.7369 6.03688 22.4614C6.3006 22.186 6.65829 22.0312 7.03125 22.0312H37.9688C38.3417 22.0312 38.6994 22.186 38.9631 22.4614C39.2268 22.7369 39.375 23.1105 39.375 23.5ZM7.03125 13.2188H37.9688C38.3417 13.2188 38.6994 13.064 38.9631 12.7886C39.2268 12.5131 39.375 12.1395 39.375 11.75C39.375 11.3605 39.2268 10.9869 38.9631 10.7114C38.6994 10.436 38.3417 10.2812 37.9688 10.2812H7.03125C6.65829 10.2812 6.3006 10.436 6.03688 10.7114C5.77316 10.9869 5.625 11.3605 5.625 11.75C5.625 12.1395 5.77316 12.5131 6.03688 12.7886C6.3006 13.064 6.65829 13.2188 7.03125 13.2188ZM37.9688 33.7812H7.03125C6.65829 33.7812 6.3006 33.936 6.03688 34.2114C5.77316 34.4869 5.625 34.8605 5.625 35.25C5.625 35.6395 5.77316 36.0131 6.03688 36.2886C6.3006 36.564 6.65829 36.7188 7.03125 36.7188H37.9688C38.3417 36.7188 38.6994 36.564 38.9631 36.2886C39.2268 36.0131 39.375 35.6395 39.375 35.25C39.375 34.8605 39.2268 34.4869 38.9631 34.2114C38.6994 33.936 38.3417 33.7812 37.9688 33.7812Z" fill="white"/>
</g>
<defs>
<filter id="filter0_d_52_139" x="-5" y="0" width="55" height="58" filterUnits="userSpaceOnUse" color-interpolation-filters="sRGB">
<feFlood flood-opacity="0" result="BackgroundImageFix"/>
<feColorMatrix in="SourceAlpha" type="matrix" values="0 0 0 0 0 0 0 0 0 0 0 0 0 0 0 0 0 0 127 0" result="hardAlpha"/>
<feOffset dy="6"/>
<feGaussianBlur stdDeviation="2.5"/>
<feComposite in2="hardAlpha" operator="out"/>
<feColorMatrix type="matrix" values="0 0 0 0 0 0 0 0 0 0 0 0 0 0 0 0 0 0 0.3 0"/>
<feBlend mode="normal" in2="BackgroundImageFix" result="effect1_dropShadow_52_139"/>
<feBlend mode="normal" in="SourceGraphic" in2="effect1_dropShadow_52_139" result="shape"/>
</filter>
</defs>
</svg>
